<mxfile host="app.diagrams.net" modified="2021-07-10T18:20:42.190Z" agent="5.0 (Windows)" etag="6dhy95AbYseAea57ysCJ" version="14.7.7" type="github">
  <diagram id="HadlAztjf9R43GAp7Yzt" name="Page-1">
    <mxGraphModel dx="981" dy="519" grid="1" gridSize="10" guides="1" tooltips="1" connect="1" arrows="1" fold="1" page="1" pageScale="1" pageWidth="827" pageHeight="1169" math="0" shadow="0">
      <root>
        <mxCell id="0" />
        <mxCell id="1" parent="0" />
        <mxCell id="t_6hhF8S0Cf5xnwuKje1-1" value="&lt;div&gt;&lt;i&gt;&lt;b&gt;CreateFilter&lt;/b&gt;&lt;/i&gt;&lt;/div&gt;&lt;div&gt;&lt;br&gt;&lt;/div&gt;&lt;div&gt;bool isFiltered(ISeparateAccess value): &lt;br&gt;&lt;/div&gt;&lt;div&gt;return value.isCreate();&lt;br&gt;&lt;/div&gt;" style="rounded=0;whiteSpace=wrap;html=1;" vertex="1" parent="1">
          <mxGeometry x="150" y="60" width="310" height="80" as="geometry" />
        </mxCell>
        <mxCell id="t_6hhF8S0Cf5xnwuKje1-2" value="&lt;font style=&quot;font-size: 16px&quot;&gt;&lt;i&gt;&lt;b&gt;SEPARATE ACCESS LOGIC&lt;/b&gt;&lt;/i&gt;&lt;/font&gt; " style="text;html=1;strokeColor=none;fillColor=none;align=center;verticalAlign=middle;whiteSpace=wrap;rounded=0;" vertex="1" parent="1">
          <mxGeometry x="324" y="20" width="256" height="20" as="geometry" />
        </mxCell>
        <mxCell id="t_6hhF8S0Cf5xnwuKje1-3" value="&lt;font style=&quot;font-size: 15px&quot;&gt;&lt;b&gt;FILTERS&lt;/b&gt;&lt;/font&gt;" style="text;html=1;strokeColor=none;fillColor=none;align=center;verticalAlign=middle;whiteSpace=wrap;rounded=0;" vertex="1" parent="1">
          <mxGeometry y="200" width="90" height="20" as="geometry" />
        </mxCell>
        <mxCell id="t_6hhF8S0Cf5xnwuKje1-4" value="&lt;div&gt;&lt;i&gt;&lt;b&gt;SendFilter&lt;/b&gt;&lt;/i&gt;&lt;/div&gt;&lt;div&gt;&lt;br&gt;&lt;/div&gt;&lt;div&gt;bool isFiltered(ISeparateAccess value): &lt;br&gt;&lt;/div&gt;&lt;div&gt;return value.isSend();&lt;br&gt;&lt;/div&gt;" style="rounded=0;whiteSpace=wrap;html=1;" vertex="1" parent="1">
          <mxGeometry x="150" y="170" width="310" height="80" as="geometry" />
        </mxCell>
        <mxCell id="t_6hhF8S0Cf5xnwuKje1-5" value="&lt;div&gt;&lt;b&gt;&lt;i&gt;ViewFilter&lt;/i&gt;&lt;/b&gt;&lt;/div&gt;&lt;div&gt;&lt;br&gt;&lt;/div&gt;&lt;div&gt;bool isFiltered(ISeparateAccess value): &lt;br&gt;&lt;/div&gt;&lt;div&gt;return value.isView() &lt;font color=&quot;#FF3333&quot;&gt;&lt;b&gt;|| value.isCreate() || value.isSend()&lt;/b&gt;&lt;/font&gt;;&lt;br&gt;&lt;/div&gt;" style="rounded=0;whiteSpace=wrap;html=1;" vertex="1" parent="1">
          <mxGeometry x="150" y="280" width="310" height="80" as="geometry" />
        </mxCell>
        <mxCell id="t_6hhF8S0Cf5xnwuKje1-6" value="&lt;div&gt;&lt;font size=&quot;1&quot;&gt;&lt;i&gt;&lt;b style=&quot;font-size: 15px&quot;&gt;SeparateAccess&lt;/b&gt;&lt;/i&gt;&lt;/font&gt;&lt;/div&gt;&lt;div&gt;&lt;font size=&quot;1&quot;&gt;&lt;i&gt;&lt;span style=&quot;font-size: 15px&quot;&gt;(ups_doc_access_account)&lt;/span&gt;&lt;b style=&quot;font-size: 15px&quot;&gt;&lt;br&gt;&lt;/b&gt;&lt;/i&gt;&lt;/font&gt;&lt;/div&gt;&lt;div&gt;&lt;font size=&quot;1&quot;&gt;&lt;i&gt;&lt;b style=&quot;font-size: 15px&quot;&gt;&lt;br&gt;&lt;/b&gt;&lt;/i&gt;&lt;/font&gt;&lt;/div&gt;&lt;div&gt;&lt;font size=&quot;1&quot;&gt;&lt;i&gt;&lt;b style=&quot;font-size: 15px&quot;&gt;&lt;br&gt;&lt;/b&gt;&lt;/i&gt;&lt;/font&gt;&lt;/div&gt;&lt;div style=&quot;font-size: 13px&quot; align=&quot;left&quot;&gt;&lt;font style=&quot;font-size: 13px&quot;&gt;subjectId = &quot;&lt;b&gt;SUBJECT_ID&lt;/b&gt;&quot;&lt;/font&gt;&lt;/div&gt;&lt;div style=&quot;font-size: 13px&quot; align=&quot;left&quot;&gt;&lt;font style=&quot;font-size: 13px&quot;&gt;clientId = &quot;&lt;b&gt;CLIENT_ID&lt;/b&gt;&quot;&lt;/font&gt;&lt;/div&gt;&lt;div style=&quot;font-size: 13px&quot; align=&quot;left&quot;&gt;&lt;font style=&quot;font-size: 13px&quot;&gt;accountId = &quot;&lt;b&gt;ACC_ID&lt;/b&gt;&quot;&lt;/font&gt;&lt;/div&gt;&lt;div style=&quot;font-size: 13px&quot; align=&quot;left&quot;&gt;&lt;font style=&quot;font-size: 13px&quot;&gt;accountNumber = &quot;&lt;b&gt;ACC_NUMBER&lt;/b&gt;&quot;&lt;/font&gt;&lt;/div&gt;&lt;div style=&quot;font-size: 13px&quot; align=&quot;left&quot;&gt;&lt;font style=&quot;font-size: 13px&quot;&gt;view = &quot;&lt;b&gt;IS_VIEW&lt;/b&gt;&quot;&lt;/font&gt;&lt;/div&gt;&lt;div style=&quot;font-size: 13px&quot; align=&quot;left&quot;&gt;&lt;font style=&quot;font-size: 13px&quot;&gt;create = &quot;&lt;b&gt;IS_CREATE&lt;/b&gt;&quot;&lt;/font&gt;&lt;/div&gt;&lt;div style=&quot;font-size: 13px&quot; align=&quot;left&quot;&gt;&lt;font style=&quot;font-size: 13px&quot;&gt;send = &quot;&lt;b&gt;IS_SEND&lt;/b&gt;&quot;&lt;/font&gt;&lt;/div&gt;&lt;div style=&quot;font-size: 13px&quot; align=&quot;left&quot;&gt;&lt;font style=&quot;font-size: 13px&quot;&gt;decline = &quot;&lt;b&gt;IS_DECLINE&lt;/b&gt;&quot;&lt;/font&gt;&lt;br&gt;&lt;/div&gt;" style="rounded=1;whiteSpace=wrap;html=1;" vertex="1" parent="1">
          <mxGeometry x="510" y="60" width="220" height="230" as="geometry" />
        </mxCell>
        <mxCell id="t_6hhF8S0Cf5xnwuKje1-7" value="" style="endArrow=classic;html=1;entryX=-0.011;entryY=0.426;entryDx=0;entryDy=0;entryPerimeter=0;" edge="1" parent="1" target="t_6hhF8S0Cf5xnwuKje1-1">
          <mxGeometry width="50" height="50" relative="1" as="geometry">
            <mxPoint x="70" y="190" as="sourcePoint" />
            <mxPoint x="300" y="170" as="targetPoint" />
          </mxGeometry>
        </mxCell>
        <mxCell id="t_6hhF8S0Cf5xnwuKje1-8" value="" style="endArrow=classic;html=1;exitX=1;exitY=0.5;exitDx=0;exitDy=0;entryX=0;entryY=0.5;entryDx=0;entryDy=0;" edge="1" parent="1" source="t_6hhF8S0Cf5xnwuKje1-3" target="t_6hhF8S0Cf5xnwuKje1-4">
          <mxGeometry width="50" height="50" relative="1" as="geometry">
            <mxPoint x="80" y="200" as="sourcePoint" />
            <mxPoint x="150" y="200" as="targetPoint" />
          </mxGeometry>
        </mxCell>
        <mxCell id="t_6hhF8S0Cf5xnwuKje1-9" value="" style="endArrow=classic;html=1;entryX=-0.011;entryY=0.452;entryDx=0;entryDy=0;entryPerimeter=0;" edge="1" parent="1" target="t_6hhF8S0Cf5xnwuKje1-5">
          <mxGeometry width="50" height="50" relative="1" as="geometry">
            <mxPoint x="70" y="230" as="sourcePoint" />
            <mxPoint x="166.58999999999992" y="114.07999999999993" as="targetPoint" />
          </mxGeometry>
        </mxCell>
      </root>
    </mxGraphModel>
  </diagram>
</mxfile>
